<?xml version="1.0" encoding="UTF-8" standalone="no"?>
<!DOCTYPE svg PUBLIC "-//W3C//DTD SVG 1.1//EN" "http://www.w3.org/Graphics/SVG/1.1/DTD/svg11.dtd">
<svg width="100%" height="100%" viewBox="0 0 4114 368" version="1.1" xmlns="http://www.w3.org/2000/svg" xmlns:xlink="http://www.w3.org/1999/xlink" xml:space="preserve" xmlns:serif="http://www.serif.com/" style="fill-rule:evenodd;clip-rule:evenodd;stroke-linejoin:round;stroke-miterlimit:2;">
    <g transform="matrix(1,0,0,1,-28201.140068,-5253.407287)">
        <g transform="matrix(1.297074,0,0,1,-8246.996643,0)">
            <g id="logo-sergioalexo-black" transform="matrix(0.770966,0,0,1,12991.576819,2978.959841)">
                <g transform="matrix(4.807796,0,0,4.807796,17187.59959,1751.616577)">
                    <path d="M501.165,164.787C501.165,162.778 501.761,161.339 502.953,160.471C504.145,159.602 505.303,159.168 506.427,159.168L512.506,159.168C515.571,159.168 517.904,160.837 519.505,164.174C521.105,167.512 524.698,169.181 530.284,169.181L548.164,169.538C554.158,169.538 557.155,167.58 557.155,163.663C557.155,160.701 553.493,158.368 546.171,156.665C542.902,155.881 539.292,155.107 535.341,154.34C531.39,153.574 527.465,152.612 523.566,151.454C519.666,150.296 516.082,148.934 512.812,147.367C509.543,145.801 506.895,143.646 504.869,140.905C502.842,138.163 501.829,134.936 501.829,131.224C501.829,124.379 504.264,119.108 509.134,115.413C514.004,111.718 522.382,109.87 534.268,109.87L547.244,110.177C554.226,110.177 560.518,111.973 566.12,115.566C571.723,119.159 574.524,123.646 574.524,129.027C574.524,131.037 573.928,132.484 572.736,133.37C571.544,134.255 570.403,134.698 569.313,134.698L563.234,134.698C560.169,134.698 557.836,133.021 556.235,129.666C554.634,126.311 551.041,124.634 545.456,124.634L530.079,124.328C524.085,124.328 521.088,126.286 521.088,130.202C521.088,132.348 522.987,134.102 526.784,135.464C530.582,136.827 535.179,138.027 540.577,139.066C545.975,140.105 551.399,141.356 556.848,142.821C562.297,144.285 566.92,146.695 570.718,150.049C574.515,153.404 576.414,157.584 576.414,162.591C576.414,169.436 573.97,174.706 569.083,178.402C564.196,182.097 555.826,183.944 543.975,183.944L528.496,183.638C521.514,183.638 515.213,181.841 509.594,178.248C503.975,174.655 501.165,170.168 501.165,164.787Z" style="fill-rule:nonzero;"/>
                </g>
                <g transform="matrix(4.807796,0,0,4.807796,17187.59959,1751.616577)">
                    <path d="M735.73,181.339C735.73,182.804 734.862,183.536 733.125,183.536L720.864,183.536C719.57,183.536 718.148,183.067 716.599,182.131C715.049,181.194 713.866,180.062 713.048,178.734L704.364,165.145C700.788,159.56 696.463,156.767 691.388,156.767L678.923,156.767L678.923,178.734C678.923,180.062 678.455,181.194 677.518,182.131C676.582,183.067 675.449,183.536 674.121,183.536L664.517,183.536C663.189,183.536 662.048,183.067 661.094,182.131C660.141,181.194 659.664,180.062 659.664,178.734L659.664,115.132C659.664,113.804 660.124,112.663 661.043,111.709C661.963,110.756 663.087,110.279 664.415,110.279L706.561,110.279C714.36,110.279 720.754,112.374 725.743,116.563C730.732,120.752 733.227,126.405 733.227,133.523C733.227,143.434 726.807,149.649 713.968,152.169C716.011,152.918 717.901,154.204 719.638,156.026C721.375,157.848 723.368,160.496 725.615,163.97L734.913,178.734C735.458,179.687 735.73,180.556 735.73,181.339ZM678.923,142.31L700.686,142.31C704.194,142.31 707.284,141.612 709.958,140.215C712.631,138.819 713.968,136.588 713.968,133.523C713.968,130.458 712.631,128.227 709.958,126.831C707.284,125.434 704.194,124.736 700.686,124.736L678.923,124.736L678.923,142.31Z" style="fill-rule:nonzero;"/>
                </g>
                <g transform="matrix(4.807796,0,0,4.807796,17187.59959,1751.616577)">
                    <path d="M772.553,183.944C761.246,183.944 752.57,180.896 746.525,174.8C740.48,168.704 737.458,159.381 737.458,146.831C737.458,134.281 740.616,124.983 746.934,118.938C753.252,112.893 762.728,109.87 775.363,109.87L786.755,109.87C794.282,109.87 801.068,111.667 807.113,115.26C813.158,118.853 816.18,123.34 816.18,128.721C816.18,130.73 815.584,132.169 814.392,133.038C813.2,133.906 812.043,134.34 810.919,134.34L804.839,134.34C801.911,134.34 799.578,132.672 797.841,129.334C796.104,125.996 791.813,124.328 784.967,124.328L775.874,124.328C768.415,124.328 763.358,125.928 760.702,129.13C758.045,132.331 756.717,138.223 756.717,146.805C756.717,155.388 757.909,161.322 760.293,164.609C762.677,167.895 766.934,169.538 773.064,169.538L783.537,169.538C789.02,169.538 792.936,168.491 795.286,166.397C797.636,164.302 798.845,161.297 798.914,157.38L787.368,157.38C786.04,157.38 784.908,156.912 783.971,155.975C783.034,155.039 782.566,153.906 782.566,152.578L782.566,148.593C782.566,147.265 783.034,146.133 783.971,145.196C784.908,144.259 786.04,143.791 787.368,143.791L813.013,143.791C814.341,143.791 815.474,144.259 816.41,145.196C817.347,146.133 817.815,147.265 817.815,148.593L817.815,154.264C817.815,163.8 814.954,171.13 809.233,176.256C803.511,181.382 795.116,183.944 784.048,183.944L772.553,183.944Z" style="fill-rule:nonzero;"/>
                </g>
                <g transform="matrix(4.807796,0,0,4.807796,17187.59959,1751.616577)">
                    <path d="M825.724,178.836L825.724,115.132C825.724,113.804 826.201,112.663 827.154,111.709C828.108,110.756 829.249,110.279 830.577,110.279L840.079,110.279C841.475,110.279 842.642,110.756 843.578,111.709C844.515,112.663 844.983,113.804 844.983,115.132L844.983,178.734C844.983,180.062 844.498,181.194 843.527,182.131C842.556,183.067 841.407,183.536 840.079,183.536L830.577,183.536C829.249,183.536 828.108,183.085 827.154,182.182C826.201,181.279 825.724,180.164 825.724,178.836Z" style="fill-rule:nonzero;"/>
                </g>
                <g transform="matrix(4.807796,0,0,4.807796,17187.59959,1751.616577)">
                    <path d="M924.692,175.95C917.728,182.063 907.511,185.119 894.041,185.119C880.571,185.119 870.346,182.063 863.364,175.95C856.382,169.836 852.892,160.156 852.892,146.907C852.892,133.659 856.382,123.987 863.364,117.891C870.346,111.795 880.571,108.746 894.041,108.746C907.511,108.746 917.728,111.795 924.692,117.891C931.657,123.987 935.139,133.659 935.139,146.907C935.139,160.156 931.657,169.836 924.692,175.95ZM910.72,128.67C907.281,124.583 901.721,122.54 894.041,122.54C886.361,122.54 880.793,124.583 877.336,128.67C873.879,132.757 872.151,138.844 872.151,146.933C872.151,155.021 873.879,161.101 877.336,165.17C880.793,169.24 886.361,171.275 894.041,171.275C901.721,171.275 907.281,169.24 910.72,165.17C914.16,161.101 915.88,155.021 915.88,146.933C915.88,138.844 914.16,132.757 910.72,128.67Z" style="fill-rule:nonzero;"/>
                </g>
                <g transform="matrix(4.807796,0,0,4.807796,17187.59959,1751.616577)">
                    <path d="M964.451,178.836L977.273,130.202C980.747,116.954 992.054,110.313 1011.194,110.279L1038.729,110.279C1039.989,110.279 1041.037,110.756 1041.871,111.709C1042.705,112.663 1043.123,113.77 1043.123,115.03L1043.123,178.836C1043.123,180.164 1042.646,181.279 1041.692,182.182C1040.739,183.085 1039.598,183.536 1038.269,183.536L1028.665,183.536C1027.269,183.536 1026.12,183.085 1025.217,182.182C1024.315,181.279 1023.863,180.13 1023.863,178.734L1023.863,165.86L987.541,165.86L984.119,178.734C983.778,180.13 983.012,181.279 981.82,182.182C980.628,183.085 979.368,183.536 978.04,183.536L967.976,183.536C966.647,183.536 965.694,183.153 965.115,182.386C964.536,181.62 964.255,180.947 964.272,180.368C964.289,179.789 964.349,179.279 964.451,178.836ZM991.322,151.403L1023.863,151.403L1023.863,124.736L1009.304,124.736C1006.034,124.736 1003.182,125.664 1000.747,127.52C998.312,129.377 996.669,131.871 995.817,135.004L991.322,151.403Z" style="fill-rule:nonzero;"/>
                </g>
                <g transform="matrix(4.807796,0,0,4.807796,17187.59959,1751.616577)">
                    <path d="M1055.169,178.836L1055.169,115.234C1055.169,113.838 1055.646,112.663 1056.599,111.709C1057.553,110.756 1058.694,110.279 1060.022,110.279L1069.626,110.279C1070.954,110.279 1072.087,110.756 1073.023,111.709C1073.96,112.663 1074.428,113.838 1074.428,115.234L1074.428,169.079L1118.924,169.079C1120.252,169.079 1121.384,169.555 1122.321,170.509C1123.258,171.463 1123.726,172.603 1123.726,173.932L1123.726,178.734C1123.726,180.062 1123.258,181.194 1122.321,182.131C1121.384,183.067 1120.252,183.536 1118.924,183.536L1060.022,183.536C1058.694,183.536 1057.553,183.085 1056.599,182.182C1055.646,181.279 1055.169,180.164 1055.169,178.836Z" style="fill-rule:nonzero;"/>
                </g>
                <g transform="matrix(4.807796,0,0,4.807796,17187.59959,1751.616577)">
                    <path d="M1201.459,183.536C1199.756,183.536 1198.802,182.769 1198.598,181.237C1198.598,180.488 1198.955,179.653 1199.671,178.734L1225.418,145.886L1201.152,115.132C1200.437,114.247 1200.079,113.412 1200.079,112.629C1200.079,111.062 1201.016,110.279 1202.889,110.279L1213.872,110.279C1217.278,110.279 1220.258,111.897 1222.812,115.132L1236.81,132.91L1250.807,115.132C1253.328,111.931 1256.308,110.313 1259.747,110.279L1270.731,110.279C1272.604,110.279 1273.54,111.062 1273.54,112.629C1273.54,113.378 1273.183,114.213 1272.468,115.132L1248.202,145.886L1273.949,178.734C1274.664,179.619 1275.022,180.334 1275.022,180.879C1275.022,181.424 1274.954,181.816 1274.818,182.054C1274.443,183.042 1273.557,183.536 1272.161,183.536L1261.28,183.536C1257.874,183.536 1254.911,181.935 1252.391,178.734L1236.81,158.861L1221.229,178.734C1218.709,181.935 1215.746,183.536 1212.34,183.536L1201.459,183.536Z" style="fill-rule:nonzero;"/>
                </g>
                <g transform="matrix(4.807796,0,0,4.807796,17187.59959,1751.616577)">
                    <path d="M1346.353,175.95C1339.389,182.063 1329.171,185.119 1315.702,185.119C1302.232,185.119 1292.007,182.063 1285.025,175.95C1278.043,169.836 1274.552,160.156 1274.552,146.907C1274.552,133.659 1278.043,123.987 1285.025,117.891C1292.007,111.795 1302.232,108.746 1315.702,108.746C1329.171,108.746 1339.389,111.795 1346.353,117.891C1353.318,123.987 1356.8,133.659 1356.8,146.907C1356.8,160.156 1353.318,169.836 1346.353,175.95ZM1332.381,128.67C1328.942,124.583 1323.382,122.54 1315.702,122.54C1308.022,122.54 1302.454,124.583 1298.997,128.67C1295.54,132.757 1293.812,138.844 1293.812,146.933C1293.812,155.021 1295.54,161.101 1298.997,165.17C1302.454,169.24 1308.022,171.275 1315.702,171.275C1323.382,171.275 1328.942,169.24 1332.381,165.17C1335.821,161.101 1337.541,155.021 1337.541,146.933C1337.541,138.844 1335.821,132.757 1332.381,128.67Z" style="fill-rule:nonzero;"/>
                </g>
                <g transform="matrix(1,0,0,1,3491.602033,54.718637)">
                    <g transform="matrix(-4.807796,-0,0,-4.807796,19643.71917,2826.803558)">
                        <path d="M589.073,110.279L648.026,110.279C649.354,110.279 650.487,110.756 651.423,111.709C652.36,112.663 652.828,113.804 652.828,115.132L652.828,119.934C652.828,121.262 652.36,122.395 651.423,123.331C650.487,124.268 649.354,124.736 648.026,124.736L589.073,124.736C587.745,124.736 586.613,124.259 585.676,123.306C584.74,122.352 584.271,121.211 584.271,119.883L584.271,115.081C584.271,113.753 584.74,112.62 585.676,111.684C586.613,110.747 587.745,110.279 589.073,110.279Z"/>
                    </g>
                    <g transform="matrix(-4.807796,-0,0,-4.807796,19643.71917,3109.499494)">
                        <path d="M589.073,110.279L648.026,110.279C649.354,110.279 650.487,110.756 651.423,111.709C652.36,112.663 652.828,113.804 652.828,115.132L652.828,119.934C652.828,121.262 652.36,122.395 651.423,123.331C650.487,124.268 649.354,124.736 648.026,124.736L589.073,124.736C587.745,124.736 586.613,124.259 585.676,123.306C584.74,122.352 584.271,121.211 584.271,119.883L584.271,115.081C584.271,113.753 584.74,112.62 585.676,111.684C586.613,110.747 587.745,110.279 589.073,110.279Z"/>
                    </g>
                    <g transform="matrix(-4.807796,-0,0,-4.807796,19643.71917,2968.151526)">
                        <path d="M595.255,110.279L648.026,110.279C649.354,110.279 650.487,110.756 651.423,111.709C652.36,112.663 652.828,113.804 652.828,115.132L652.828,119.934C652.828,121.262 652.36,122.395 651.423,123.331C650.487,124.268 649.354,124.736 648.026,124.736L595.255,124.736C593.927,124.736 592.794,124.259 591.858,123.306C590.921,122.352 590.453,121.211 590.453,119.883L590.453,115.081C590.453,113.753 590.921,112.62 591.858,111.684C592.794,110.747 593.927,110.279 595.255,110.279Z"/>
                    </g>
                </g>
                <g transform="matrix(1,0,0,1,6108.869559,54.718637)">
                    <g transform="matrix(-4.807796,-0,0,-4.807796,19643.71917,2826.803558)">
                        <path d="M589.073,110.279L648.026,110.279C649.354,110.279 650.487,110.756 651.423,111.709C652.36,112.663 652.828,113.804 652.828,115.132L652.828,119.934C652.828,121.262 652.36,122.395 651.423,123.331C650.487,124.268 649.354,124.736 648.026,124.736L589.073,124.736C587.745,124.736 586.613,124.259 585.676,123.306C584.74,122.352 584.271,121.211 584.271,119.883L584.271,115.081C584.271,113.753 584.74,112.62 585.676,111.684C586.613,110.747 587.745,110.279 589.073,110.279Z"/>
                    </g>
                    <g transform="matrix(-4.807796,-0,0,-4.807796,19643.71917,3109.499494)">
                        <path d="M589.073,110.279L648.026,110.279C649.354,110.279 650.487,110.756 651.423,111.709C652.36,112.663 652.828,113.804 652.828,115.132L652.828,119.934C652.828,121.262 652.36,122.395 651.423,123.331C650.487,124.268 649.354,124.736 648.026,124.736L589.073,124.736C587.745,124.736 586.613,124.259 585.676,123.306C584.74,122.352 584.271,121.211 584.271,119.883L584.271,115.081C584.271,113.753 584.74,112.62 585.676,111.684C586.613,110.747 587.745,110.279 589.073,110.279Z"/>
                    </g>
                    <g transform="matrix(-4.807796,-0,0,-4.807796,19643.71917,2968.151526)">
                        <path d="M595.255,110.279L648.026,110.279C649.354,110.279 650.487,110.756 651.423,111.709C652.36,112.663 652.828,113.804 652.828,115.132L652.828,119.934C652.828,121.262 652.36,122.395 651.423,123.331C650.487,124.268 649.354,124.736 648.026,124.736L595.255,124.736C593.927,124.736 592.794,124.259 591.858,123.306C590.921,122.352 590.453,121.211 590.453,119.883L590.453,115.081C590.453,113.753 590.921,112.62 591.858,111.684C592.794,110.747 593.927,110.279 595.255,110.279Z"/>
                    </g>
                </g>
            </g>
        </g>
    </g>
</svg>
